<svg width="79" height="19" viewBox="0 0 79 19" fill="none" xmlns="http://www.w3.org/2000/svg">
<path d="M4.05859 16.7793C3.47266 16.7793 2.96094 16.7051 2.52344 16.5566C2.08594 16.4004 1.71875 16.1895 1.42188 15.9238C1.13281 15.6504 0.910156 15.3301 0.753906 14.9629C0.597656 14.5957 0.507813 14.2012 0.484375 13.7793H1.51563C1.65625 15.2168 2.51953 15.9355 4.10547 15.9355C4.39453 15.9355 4.66016 15.9043 4.90234 15.8418C5.15234 15.7715 5.36328 15.6738 5.53516 15.5488C5.71484 15.416 5.85156 15.252 5.94531 15.0566C6.04688 14.8535 6.09766 14.623 6.09766 14.3652C6.09766 14.0762 6.03516 13.8379 5.91016 13.6504C5.79297 13.4629 5.625 13.3066 5.40625 13.1816C5.1875 13.0566 4.92188 12.9551 4.60938 12.877C4.30469 12.791 3.96484 12.7051 3.58984 12.6191C3.22266 12.541 2.87109 12.4512 2.53516 12.3496C2.20703 12.2402 1.91797 12.0996 1.66797 11.9277C1.41797 11.7559 1.21875 11.541 1.07031 11.2832C0.921875 11.0176 0.847656 10.6855 0.847656 10.2871C0.847656 9.94336 0.914063 9.63476 1.04688 9.36133C1.1875 9.08789 1.38281 8.85742 1.63281 8.66992C1.88281 8.47461 2.18359 8.32617 2.53516 8.22461C2.88672 8.12305 3.27344 8.07226 3.69531 8.07226C4.21875 8.07226 4.66797 8.13867 5.04297 8.27148C5.42578 8.39648 5.74219 8.57226 5.99219 8.79883C6.24219 9.02539 6.4375 9.30273 6.57813 9.63086C6.71875 9.95117 6.81641 10.3027 6.87109 10.6855H5.875C5.79688 10.084 5.57031 9.63476 5.19531 9.33789C4.82813 9.04101 4.33594 8.89258 3.71875 8.89258C3.14844 8.89258 2.69141 9.00976 2.34766 9.24414C2.00391 9.4707 1.83203 9.80273 1.83203 10.2402C1.83203 10.4746 1.88672 10.6738 1.99609 10.8379C2.10547 10.9941 2.25781 11.1309 2.45313 11.248C2.64844 11.3574 2.87891 11.4473 3.14453 11.5176C3.41797 11.5879 3.71094 11.6543 4.02344 11.7168C4.42969 11.8027 4.82031 11.9004 5.19531 12.0098C5.57031 12.1113 5.90234 12.2559 6.19141 12.4434C6.48047 12.6309 6.71094 12.877 6.88281 13.1816C7.05469 13.4785 7.14063 13.8613 7.14063 14.3301C7.14063 14.7207 7.0625 15.0684 6.90625 15.373C6.75781 15.6777 6.54688 15.9355 6.27344 16.1465C6 16.3496 5.67578 16.5059 5.30078 16.6152C4.92578 16.7246 4.51172 16.7793 4.05859 16.7793ZM10.2693 13.3457L9.37863 14.1895V16.6152H8.42941V8.23633H9.37863V13.1465L12.0388 10.5566H13.2458L10.9255 12.7363L13.5271 16.6152H12.4138L10.2693 13.3457ZM15.159 18.6191C14.9793 18.6191 14.8231 18.6113 14.6902 18.5957C14.5652 18.5801 14.4363 18.5449 14.3035 18.4902V17.6465H14.3504C14.4129 17.6855 14.4949 17.7168 14.5965 17.7402C14.7059 17.7637 14.8387 17.7754 14.9949 17.7754C15.1981 17.7754 15.3699 17.7246 15.5106 17.623C15.6512 17.5293 15.7801 17.334 15.8973 17.0371L16.1317 16.4395L13.7645 10.5566H14.7957L16.2254 14.3301C16.2723 14.4629 16.3192 14.5996 16.366 14.7402C16.4129 14.873 16.4559 14.998 16.4949 15.1152C16.5418 15.2559 16.5887 15.3887 16.6356 15.5137H16.659C16.6981 15.3887 16.741 15.2559 16.7879 15.1152C16.827 14.998 16.8699 14.873 16.9168 14.7402C16.9637 14.5996 17.0106 14.4629 17.0574 14.3301L18.4402 10.5566H19.4481L16.8582 17.1074C16.7332 17.4199 16.6082 17.6738 16.4832 17.8691C16.366 18.0645 16.2371 18.2168 16.0965 18.3262C15.9637 18.4434 15.8192 18.5215 15.6629 18.5605C15.5145 18.5996 15.3465 18.6191 15.159 18.6191ZM20.3417 10.5566H21.2909V11.4121H21.3144C21.5409 11.0996 21.8105 10.8574 22.123 10.6855C22.4355 10.5059 22.8144 10.416 23.2597 10.416C23.6425 10.416 23.9941 10.4902 24.3144 10.6387C24.6347 10.7793 24.9081 10.9863 25.1347 11.2598C25.3612 11.5254 25.537 11.8574 25.662 12.2559C25.7948 12.6543 25.8612 13.1035 25.8612 13.6035C25.8612 14.0879 25.7987 14.5293 25.6737 14.9277C25.5566 15.3184 25.3847 15.6543 25.1581 15.9355C24.9316 16.209 24.6542 16.4199 24.3261 16.5684C23.998 16.7168 23.6308 16.791 23.2245 16.791C22.8105 16.791 22.4511 16.7246 22.1464 16.5918C21.8417 16.459 21.5644 16.2285 21.3144 15.9004H21.2909V18.5605H20.3417V10.5566ZM23.1542 15.9941C23.4433 15.9941 23.6972 15.9355 23.9159 15.8184C24.1347 15.6934 24.3144 15.5254 24.455 15.3145C24.6034 15.1035 24.7128 14.8535 24.7831 14.5645C24.8534 14.2754 24.8886 13.959 24.8886 13.6152C24.8886 13.2793 24.8534 12.9668 24.7831 12.6777C24.7128 12.3809 24.6034 12.127 24.455 11.916C24.3144 11.6973 24.1347 11.5293 23.9159 11.4121C23.705 11.2871 23.455 11.2246 23.1659 11.2246C22.8378 11.2246 22.5487 11.2871 22.2987 11.4121C22.0566 11.5371 21.8573 11.709 21.7011 11.9277C21.5448 12.1465 21.4276 12.4004 21.3495 12.6895C21.2714 12.9785 21.2323 13.2871 21.2323 13.6152C21.2323 13.9434 21.2675 14.252 21.3378 14.541C21.4081 14.8301 21.5175 15.084 21.6659 15.3027C21.8222 15.5137 22.0214 15.6816 22.2636 15.8066C22.5058 15.9316 22.8026 15.9941 23.1542 15.9941ZM29.6201 16.7793C29.167 16.7793 28.7607 16.6973 28.4014 16.5332C28.042 16.3613 27.7334 16.1309 27.4756 15.8418C27.2256 15.5527 27.0303 15.2168 26.8897 14.834C26.7568 14.4434 26.6904 14.0293 26.6904 13.5918C26.6904 13.1543 26.7568 12.7441 26.8897 12.3613C27.0303 11.9707 27.2256 11.6309 27.4756 11.3418C27.7334 11.0527 28.042 10.8262 28.4014 10.6621C28.7607 10.4902 29.167 10.4043 29.6201 10.4043C30.0732 10.4043 30.4795 10.4902 30.8389 10.6621C31.1982 10.8262 31.5029 11.0527 31.7529 11.3418C32.0107 11.6309 32.2061 11.9707 32.3389 12.3613C32.4717 12.7441 32.5381 13.1543 32.5381 13.5918C32.5381 14.0293 32.4717 14.4434 32.3389 14.834C32.2061 15.2168 32.0107 15.5527 31.7529 15.8418C31.5029 16.1309 31.1982 16.3613 30.8389 16.5332C30.4795 16.6973 30.0732 16.7793 29.6201 16.7793ZM29.6201 15.9824C29.9404 15.9824 30.2217 15.9199 30.4639 15.7949C30.7061 15.6699 30.9092 15.502 31.0732 15.291C31.2373 15.0723 31.3584 14.8184 31.4365 14.5293C31.5225 14.2402 31.5654 13.9277 31.5654 13.5918C31.5654 13.2559 31.5225 12.9434 31.4365 12.6543C31.3584 12.3652 31.2373 12.1113 31.0732 11.8926C30.9092 11.6738 30.7061 11.502 30.4639 11.377C30.2217 11.252 29.9404 11.1895 29.6201 11.1895C29.2998 11.1895 29.0147 11.252 28.7647 11.377C28.5225 11.502 28.3193 11.6738 28.1553 11.8926C27.9912 12.1113 27.8662 12.3652 27.7803 12.6543C27.7022 12.9434 27.6631 13.2559 27.6631 13.5918C27.6631 13.9277 27.7022 14.2402 27.7803 14.5293C27.8662 14.8184 27.9912 15.0723 28.1553 15.291C28.3193 15.502 28.5225 15.6699 28.7647 15.7949C29.0147 15.9199 29.2998 15.9824 29.6201 15.9824ZM34.6566 11.5645H34.6801C34.8597 11.2676 35.1019 11.0137 35.4066 10.8027C35.7191 10.5918 36.0785 10.4863 36.4847 10.4863C36.5707 10.4863 36.641 10.4941 36.6957 10.5098C36.7504 10.5176 36.809 10.5332 36.8715 10.5566V11.4707H36.8363C36.766 11.4473 36.6996 11.4316 36.6371 11.4238C36.5824 11.416 36.5082 11.4121 36.4144 11.4121C36.1801 11.4121 35.9574 11.4551 35.7465 11.541C35.5355 11.627 35.348 11.748 35.184 11.9043C35.0199 12.0605 34.891 12.2559 34.7972 12.4902C34.7035 12.7168 34.6566 12.9707 34.6566 13.252V16.6152H33.7074V10.5566H34.6566V11.5645ZM37.5602 10.5566H38.4391V8.64648H39.3883V10.5566H40.5602V11.3301H39.3883V15.2676C39.3883 15.4785 39.4391 15.627 39.5407 15.7129C39.6501 15.791 39.8024 15.8301 39.9977 15.8301C40.0915 15.8301 40.1852 15.8223 40.279 15.8066C40.3727 15.7832 40.4469 15.7637 40.5016 15.748H40.5368V16.5684C40.4274 16.5918 40.3063 16.6113 40.1735 16.627C40.0485 16.6426 39.9157 16.6504 39.7751 16.6504C39.3844 16.6504 39.0641 16.5645 38.8141 16.3926C38.5641 16.2129 38.4391 15.9082 38.4391 15.4785V11.3301H37.5602V10.5566ZM45.513 16.7793C44.9193 16.7793 44.3802 16.6738 43.8958 16.4629C43.4115 16.2441 42.9974 15.9434 42.6537 15.5605C42.3177 15.1699 42.056 14.709 41.8685 14.1777C41.681 13.6387 41.5873 13.0527 41.5873 12.4199C41.5873 11.8027 41.6771 11.2285 41.8568 10.6973C42.0365 10.166 42.2943 9.70508 42.6302 9.31445C42.974 8.92383 43.3919 8.61523 43.8841 8.38867C44.3763 8.16211 44.9349 8.04883 45.5599 8.04883C46.0521 8.04883 46.4935 8.11523 46.8841 8.24805C47.2748 8.38086 47.6107 8.56836 47.8919 8.81055C48.1732 9.04492 48.3998 9.32617 48.5716 9.6543C48.7513 9.98242 48.8685 10.3379 48.9232 10.7207H47.8919C47.7904 10.1973 47.5365 9.77539 47.1302 9.45508C46.7318 9.12695 46.2005 8.96289 45.5365 8.96289C45.0755 8.96289 44.6654 9.05273 44.306 9.23242C43.9544 9.4043 43.6537 9.64648 43.4037 9.95898C43.1615 10.2637 42.9779 10.627 42.8529 11.0488C42.7279 11.4707 42.6654 11.9277 42.6654 12.4199C42.6654 12.9355 42.7318 13.4043 42.8646 13.8262C43.0052 14.248 43.2005 14.6113 43.4505 14.916C43.7005 15.2129 44.0013 15.4434 44.3529 15.6074C44.7123 15.7715 45.1107 15.8535 45.5482 15.8535C45.9466 15.8535 46.2904 15.791 46.5794 15.666C46.8763 15.541 47.1224 15.373 47.3177 15.1621C47.5208 14.9512 47.6771 14.7051 47.7865 14.4238C47.8958 14.1426 47.9623 13.8496 47.9857 13.5449H49.0287C49.0208 13.9668 48.9232 14.3926 48.7357 14.8223C48.556 15.2441 48.3177 15.6035 48.0208 15.9004C47.4193 16.4863 46.5833 16.7793 45.513 16.7793ZM55.0519 16.6738C54.4504 16.6738 54.1027 16.373 54.0089 15.7715H53.9972C53.9035 15.8887 53.7941 16.0059 53.6691 16.123C53.5441 16.2324 53.3996 16.334 53.2355 16.4277C53.0714 16.5215 52.8839 16.5957 52.673 16.6504C52.4699 16.7051 52.2394 16.7324 51.9816 16.7324C51.6925 16.7324 51.423 16.6973 51.173 16.627C50.923 16.5645 50.7043 16.4629 50.5168 16.3223C50.3371 16.1816 50.1925 16.0059 50.0832 15.7949C49.9816 15.584 49.9308 15.334 49.9308 15.0449C49.9308 14.6855 49.9972 14.3926 50.13 14.166C50.2629 13.9395 50.4464 13.7559 50.6808 13.6152C50.9152 13.4746 51.1925 13.3691 51.5129 13.2988C51.841 13.2207 52.1925 13.1504 52.5675 13.0879C52.7785 13.0566 52.9738 13.0254 53.1535 12.9941C53.3332 12.9551 53.4855 12.9082 53.6105 12.8535C53.7433 12.791 53.8449 12.7129 53.9152 12.6191C53.9855 12.5176 54.0207 12.3848 54.0207 12.2207C54.0207 11.877 53.9035 11.6152 53.6691 11.4355C53.4347 11.248 53.0988 11.1543 52.6613 11.1543C52.1691 11.1543 51.798 11.2637 51.548 11.4824C51.298 11.6934 51.1652 12.0293 51.1496 12.4902H50.2355C50.2433 12.2012 50.298 11.9316 50.3996 11.6816C50.5011 11.4238 50.6496 11.2051 50.8449 11.0254C51.048 10.8457 51.298 10.7051 51.5949 10.6035C51.8996 10.4941 52.2511 10.4395 52.6496 10.4395C52.9699 10.4395 53.2668 10.4746 53.5402 10.5449C53.8136 10.6074 54.048 10.7129 54.2433 10.8613C54.4464 11.0098 54.6027 11.209 54.7121 11.459C54.8293 11.7012 54.8879 12.002 54.8879 12.3613V15.2441C54.8879 15.4941 54.9269 15.6816 55.005 15.8066C55.091 15.9238 55.2668 15.9512 55.5324 15.8887H55.5675V16.5801C55.505 16.6035 55.4347 16.623 55.3566 16.6387C55.2785 16.6621 55.1769 16.6738 55.0519 16.6738ZM52.1925 16.0059C52.505 16.0059 52.7785 15.9551 53.0129 15.8535C53.2472 15.7441 53.4386 15.6113 53.5871 15.4551C53.7355 15.2988 53.8449 15.127 53.9152 14.9395C53.9933 14.7441 54.0324 14.5566 54.0324 14.377V13.3457C53.8761 13.4473 53.6691 13.5371 53.4113 13.6152C53.1613 13.6855 52.9074 13.7441 52.6496 13.791C52.4152 13.8379 52.1925 13.8848 51.9816 13.9316C51.7707 13.9785 51.5871 14.0488 51.4308 14.1426C51.2824 14.2285 51.1613 14.3418 51.0675 14.4824C50.9816 14.623 50.9386 14.8027 50.9386 15.0215C50.9386 15.2246 50.9738 15.3926 51.0441 15.5254C51.1222 15.6504 51.2199 15.748 51.3371 15.8184C51.4543 15.8887 51.5871 15.9395 51.7355 15.9707C51.8839 15.9941 52.0363 16.0059 52.1925 16.0059ZM57.4398 11.5645H57.4632C57.6429 11.2676 57.8851 11.0137 58.1898 10.8027C58.5023 10.5918 58.8617 10.4863 59.2679 10.4863C59.3539 10.4863 59.4242 10.4941 59.4789 10.5098C59.5335 10.5176 59.5921 10.5332 59.6546 10.5566V11.4707H59.6195C59.5492 11.4473 59.4828 11.4316 59.4203 11.4238C59.3656 11.416 59.2914 11.4121 59.1976 11.4121C58.9632 11.4121 58.7406 11.4551 58.5296 11.541C58.3187 11.627 58.1312 11.748 57.9671 11.9043C57.8031 12.0605 57.6742 12.2559 57.5804 12.4902C57.4867 12.7168 57.4398 12.9707 57.4398 13.252V16.6152H56.4906V10.5566H57.4398V11.5645ZM63.0911 16.7793C62.6301 16.7793 62.2161 16.6973 61.8489 16.5332C61.4895 16.3613 61.1848 16.1309 60.9348 15.8418C60.6848 15.5527 60.4934 15.2168 60.3606 14.834C60.2278 14.4434 60.1614 14.0293 60.1614 13.5918C60.1614 13.1543 60.2278 12.7441 60.3606 12.3613C60.5012 11.9707 60.6965 11.6309 60.9465 11.3418C61.2043 11.0527 61.509 10.8262 61.8606 10.6621C62.2122 10.4902 62.6028 10.4043 63.0325 10.4043C63.4856 10.4043 63.884 10.4902 64.2278 10.6621C64.5794 10.8262 64.8723 11.0605 65.1067 11.3652C65.3411 11.6621 65.5169 12.0215 65.634 12.4434C65.759 12.8574 65.8215 13.3145 65.8215 13.8145H61.134C61.1497 14.1191 61.2043 14.4043 61.2981 14.6699C61.3918 14.9355 61.5208 15.166 61.6848 15.3613C61.8489 15.5566 62.0481 15.709 62.2825 15.8184C62.5168 15.9277 62.7864 15.9824 63.0911 15.9824C63.5364 15.9824 63.8997 15.8809 64.1809 15.6777C64.4622 15.4668 64.6575 15.1543 64.7669 14.7402H65.6926C65.552 15.3965 65.2551 15.9004 64.802 16.252C64.3489 16.6035 63.7786 16.7793 63.0911 16.7793ZM63.0325 11.1543C62.7512 11.1543 62.5012 11.2051 62.2825 11.3066C62.0637 11.4004 61.8762 11.5371 61.72 11.7168C61.5715 11.8887 61.4465 12.0957 61.345 12.3379C61.2512 12.5723 61.1887 12.8262 61.1575 13.0996H64.802C64.7708 12.4902 64.6028 12.0137 64.2981 11.6699C64.0012 11.3262 63.5794 11.1543 63.0325 11.1543Z" fill="white"/>
<path d="M66.3948 5.31259C66.3948 5.31259 65.5401 4.47588 65.4887 4.13427C65.4499 3.87508 65.4654 3.66903 65.6489 3.44925C65.8473 3.21216 66.0147 1.94783 66.0918 1.83257C66.1689 1.7173 66.4809 0.282769 67.078 0.206324C67.6751 0.129282 68.2232 0.547937 68.4114 1.29925C68.5561 1.87796 69.3002 3.72457 69.097 6.8182C69.0139 8.08193 69.1651 7.92426 69.4538 7.94337C69.7425 7.96248 73.1302 6.28488 74.411 6.1499C75.0607 6.08182 76.2573 5.84233 77.4383 5.97133C77.785 6.00896 78.1621 6.11467 78.0163 6.31772C77.6864 6.77759 76.3159 7.3778 75.6931 7.70448C74.9986 8.06879 74.3369 8.70483 73.6239 9.24353C72.9108 9.78222 72.5851 10.2373 72.2056 10.0444C71.266 9.56722 70.9456 9.26324 70.8685 9.28235C70.7914 9.30146 70.8733 9.36297 70.9743 9.65143C71.0646 9.90943 71.6467 10.2779 71.419 10.7617C71.1453 11.3422 70.5816 11.6671 69.6415 11.7865C68.8543 11.8868 67.8807 12.0941 67.5729 11.5984C67.182 10.9689 67.3702 10.7205 67.7283 10.0134C68.1371 9.2071 67.9667 9.13483 67.9315 9.12169C67.4868 8.95089 66.8801 9.41672 66.341 9.53199C65.8019 9.64725 64.6651 9.44061 64.2222 8.59196C63.8122 7.80601 63.3197 5.74439 64.1708 5.31259C65.316 4.73209 66.1988 5.54492 66.3757 5.41532L66.393 5.31259H66.3948Z" fill="white"/>
</svg>
