<svg width="222" height="30" viewBox="0 0 222 30" fill="none" xmlns="http://www.w3.org/2000/svg">
<path fill-rule="evenodd" clip-rule="evenodd" d="M17.0481 7.52856H9.17604L0.000390625 16.0523V23.2643L17.0481 7.52856ZM8.52241 7.52866H0V15.3959L8.52241 7.52866Z" fill="#8C8C8C"/>
<path fill-rule="evenodd" clip-rule="evenodd" d="M30.8876 16.0765H31.7901H32.8159L32.3436 13.5082L30.8876 16.0765ZM33.2265 18.3335H31.7901H29.6093L28.7688 19.8174H26.163L31.229 10.9163H35.707L37.3424 19.8174H33.497L33.2265 18.3335ZM18.9523 17.854H19.5943H20.3481C22.8161 17.854 23.0715 14.9631 23.0715 14.9631C23.2145 13.1733 21.9027 13.0559 21.449 13.0532H20.1823L18.9523 17.854ZM21.5311 19.8189L19.5943 19.8168H14.7002L16.9238 10.9186H21.8533L22.8716 10.9221C22.8716 10.9221 26.9403 11.0363 26.9403 14.6886C26.9403 17.7931 24.2572 19.8189 21.5311 19.8189ZM42.4978 19.819L44.7261 10.9175H40.7886L38.5585 19.819H42.4978ZM48.1041 19.819L48.8734 16.7464L50.886 19.819H55.4428L52.0675 15.1572L57.0181 10.9175H52.9818L49.6025 13.8295L50.3405 10.9175H46.5646L44.3409 19.819H48.1041ZM60.4937 19.819L62.718 10.9175H58.7794L56.555 19.819H60.4937ZM64.6811 10.9163L62.4556 19.8195H65.1802L66.5062 14.5315L68.2622 19.8195H72.6249L74.8533 10.9163H72.1263L70.8127 16.1581L69.0627 10.9163H64.6811Z" fill="#8C8C8C"/>
<path d="M118.868 13.4197C118.163 13.4197 117.631 13.6542 116.971 14.1233C116.326 13.5907 115.73 13.3415 114.882 13.3415C114.033 13.3415 113.373 13.607 112.823 14.0451C112.698 13.7324 112.603 13.6233 112.336 13.6233H106.802L107.926 5.83057H103.556L98.1496 13.6265H95.083L95.7751 16.1003H96.4673L93.8958 19.7728H96.9135L99.327 16.1003H102.125L101.56 19.7777H105.913L106.444 16.1003H108.563C108.877 16.1003 109.05 16.1639 109.05 16.4326C109.05 16.4961 109.033 16.5759 109.002 16.6866L108.217 18.9487C108.059 19.4194 107.998 19.434 107.998 19.5594C107.998 19.763 108.154 19.7793 108.47 19.7793H110.592C111.064 19.7793 111.064 19.763 111.331 19.1051L112.023 17.0661C112.227 16.4489 112.432 16.2909 112.81 16.2909C113.046 16.2909 113.219 16.4016 113.219 16.6085L112.527 18.9503C112.37 19.4519 112.338 19.4519 112.338 19.5611C112.338 19.7646 112.494 19.7809 112.81 19.7809H114.916C115.45 19.7809 115.466 19.7027 115.655 19.1067L116.362 17.0677C116.565 16.4505 116.771 16.2925 117.148 16.2925C117.385 16.2925 117.541 16.4033 117.541 16.6101L116.849 18.952C116.692 19.4536 116.66 19.4536 116.66 19.5627C116.66 19.7663 116.816 19.7825 117.131 19.7825H119.295C119.733 19.7825 119.906 19.7825 119.906 19.3445C119.906 19.2191 119.875 19.1246 119.78 18.9373L120.485 16.6427C120.767 15.7909 120.862 15.475 120.862 15.0825C120.862 14.0809 120.062 13.4246 118.872 13.4246L118.868 13.4197ZM102.439 13.6265H100.899L103.004 10.4671L102.439 13.6265Z" fill="#8C8C8C"/>
<path d="M130.317 13.8577C130.317 13.6378 130.161 13.6231 129.846 13.6231H127.931C127.492 13.6231 127.399 13.6704 127.257 14.0775C126.646 13.514 125.925 13.1851 125.093 13.1851C123.251 13.1851 121.179 15.1882 121.179 18.0252C121.179 19.2792 121.855 19.9681 123.205 19.9681C124.257 19.9681 125.078 19.5446 125.863 18.7922L125.643 19.2938C125.549 19.4974 125.549 19.5446 125.549 19.5756C125.549 19.7482 125.69 19.7791 125.956 19.7791H128.306C128.604 19.7791 128.713 19.67 128.713 19.5121C128.713 19.4176 128.666 19.3085 128.651 19.0886L130.144 14.4814C130.286 14.0596 130.317 13.9342 130.317 13.856V13.8577ZM124.681 17.4145C124.444 17.4145 124.239 17.2565 124.239 16.9715C124.239 16.75 124.461 16.1328 124.808 15.7403C125.013 15.5025 125.234 15.3608 125.612 15.3608C126.019 15.3608 126.255 15.5025 126.63 15.9439C126.159 16.6702 125.376 17.4145 124.682 17.4145H124.681Z" fill="#8C8C8C"/>
<path d="M141.787 16.9731C141.787 16.7516 142.009 16.136 142.359 15.7403C142.564 15.5041 142.803 15.3608 143.183 15.3608C143.592 15.3608 143.826 15.5025 144.204 15.9455C143.733 16.6718 142.93 17.4145 142.233 17.4145C141.996 17.4145 141.789 17.2565 141.789 16.9731H141.787ZM143.214 19.2955C143.119 19.499 143.103 19.5463 143.103 19.5772C143.103 19.7498 143.259 19.7808 143.526 19.7808H145.881C146.179 19.7808 146.29 19.6717 146.29 19.5137C146.29 19.4192 146.243 19.3101 146.227 19.0903L147.704 14.483C147.845 14.0612 147.893 13.9358 147.893 13.8577C147.893 13.6378 147.736 13.6231 147.42 13.6231H145.503C145.064 13.6231 144.955 13.6704 144.813 14.0775C144.201 13.514 143.494 13.1851 142.658 13.1851C140.813 13.1851 138.74 15.1882 138.74 18.0252C138.74 19.2792 139.416 19.9681 140.766 19.9681C141.818 19.9681 142.627 19.5446 143.417 18.7922L143.214 19.2938V19.2955ZM134.475 13.9521C134.475 13.6867 134.397 13.6231 134.097 13.6231H132.431C132.043 13.6231 131.739 13.9358 131.519 14.5612L129.995 18.9486C129.978 18.9958 129.806 19.5283 129.806 19.5593C129.806 19.7629 129.964 19.7791 130.278 19.7791H132.384C132.918 19.7791 132.934 19.701 133.123 19.1049L133.83 17.0659C134.035 16.4503 134.239 16.2924 134.616 16.2924C134.853 16.2924 135.025 16.4031 135.025 16.6083L134.333 18.9486C134.175 19.4502 134.13 19.4502 134.13 19.5593C134.13 19.7629 134.286 19.7791 134.602 19.7791H136.766C137.204 19.7791 137.377 19.7791 137.377 19.3411C137.377 19.2157 137.361 19.1212 137.268 18.9339L137.958 16.6409C138.24 15.7875 138.334 15.4716 138.334 15.0791C138.334 14.0775 137.551 13.4212 136.359 13.4212C135.654 13.4212 135.105 13.6557 134.445 14.1247L134.476 13.9521H134.475Z" fill="#8C8C8C"/>
<path d="M148.839 14.0043C148.839 13.9082 148.787 13.8496 148.632 13.8496H148.376V14.431H148.443V14.1623H148.58L148.746 14.431H148.832L148.657 14.1623C148.759 14.159 148.841 14.1167 148.841 14.0027L148.839 14.0043ZM148.559 14.0972H148.445V13.9164H148.617C148.689 13.9164 148.775 13.9278 148.775 14.0027C148.775 14.1118 148.644 14.0972 148.56 14.0972H148.559Z" fill="#8C8C8C"/>
<path d="M148.572 13.5986C148.277 13.5986 148.038 13.8364 148.038 14.1295C148.038 14.4227 148.277 14.6637 148.572 14.6637C148.867 14.6637 149.104 14.4243 149.104 14.1295C149.104 13.8348 148.867 13.5986 148.572 13.5986ZM148.572 14.5969C148.311 14.5969 148.104 14.3901 148.104 14.1295C148.104 13.869 148.311 13.6654 148.572 13.6654C148.832 13.6654 149.038 13.8722 149.038 14.1295C149.038 14.3869 148.831 14.5969 148.572 14.5969Z" fill="#8C8C8C"/>
<path d="M117.192 12.3333H108.076V12.6036H117.192V12.3333Z" fill="#8C8C8C"/>
<path d="M145.534 12.3333H119.72V12.6036H145.534V12.3333Z" fill="#8C8C8C"/>
<path d="M109.735 11.0076H108.869L108.66 12.0059H108.203L108.668 9.77637H109.126L108.947 10.6346H109.813L109.992 9.77637H110.45L109.984 12.0059H109.527L109.735 11.0076Z" fill="#8C8C8C"/>
<path d="M110.968 11.0663C110.993 10.9343 111.041 10.8334 111.113 10.7666C111.185 10.6982 111.265 10.6656 111.354 10.6656C111.444 10.6656 111.515 10.6949 111.569 10.7552C111.623 10.8155 111.649 10.905 111.649 11.0239C111.649 11.0337 111.649 11.0483 111.649 11.0679H110.97L110.968 11.0663ZM112.046 11.0483C112.046 10.8285 111.988 10.6575 111.872 10.5353C111.756 10.4132 111.598 10.3513 111.401 10.3513C111.092 10.3513 110.853 10.4686 110.686 10.7015C110.564 10.8741 110.502 11.0711 110.502 11.2926C110.502 11.5141 110.571 11.7014 110.706 11.8382C110.841 11.975 111.017 12.045 111.234 12.045C111.392 12.045 111.533 12.0059 111.66 11.9261C111.787 11.848 111.888 11.7291 111.965 11.5711L111.576 11.5076C111.494 11.6574 111.382 11.7323 111.239 11.7323C111.151 11.7323 111.076 11.6998 111.015 11.633C110.954 11.5679 110.924 11.4799 110.924 11.3741C110.924 11.3643 110.924 11.3513 110.924 11.335H112.015C112.035 11.2503 112.046 11.1558 112.046 11.05V11.0483Z" fill="#8C8C8C"/>
<path d="M113.188 11.3057C113.165 11.4132 113.141 11.4914 113.111 11.5419C113.082 11.5924 113.04 11.6331 112.983 11.6657C112.926 11.6982 112.864 11.7145 112.799 11.7145C112.74 11.7145 112.691 11.6966 112.655 11.6624C112.619 11.6266 112.601 11.5842 112.601 11.5337C112.601 11.4719 112.624 11.423 112.672 11.3855C112.738 11.3351 112.88 11.296 113.097 11.2699C113.141 11.2634 113.175 11.2569 113.201 11.2504L113.188 11.309V11.3057ZM112.883 10.7113C112.927 10.6804 112.989 10.6641 113.066 10.6641C113.139 10.6641 113.194 10.6804 113.232 10.7113C113.269 10.7423 113.287 10.7813 113.287 10.8286C113.287 10.8644 113.277 10.9133 113.259 10.9735C113.189 10.9979 113.051 11.0191 112.844 11.0354C112.598 11.0549 112.429 11.1103 112.333 11.2031C112.237 11.296 112.189 11.4181 112.189 11.5728C112.189 11.7113 112.233 11.8236 112.32 11.9116C112.406 11.9995 112.515 12.0435 112.649 12.0435C112.732 12.0435 112.815 12.0239 112.898 11.9865C112.981 11.949 113.053 11.8937 113.116 11.8236C113.121 11.8871 113.134 11.9474 113.154 12.006H113.572C113.546 11.9213 113.535 11.8448 113.535 11.7764C113.535 11.6999 113.556 11.5647 113.6 11.3709C113.652 11.138 113.683 10.9931 113.691 10.9393C113.699 10.8839 113.704 10.8335 113.704 10.7846C113.704 10.6641 113.655 10.5615 113.556 10.4784C113.456 10.3954 113.303 10.353 113.097 10.353C112.89 10.353 112.738 10.3937 112.616 10.4752C112.496 10.5566 112.411 10.669 112.362 10.8123L112.789 10.8481C112.805 10.7895 112.834 10.7455 112.88 10.7129L112.883 10.7113Z" fill="#8C8C8C"/>
<path d="M114.015 10.7193L114.084 10.3887H114.3L114.352 10.1346L114.846 9.83496L114.734 10.3887H115.002L114.934 10.7193H114.665L114.523 11.3919C114.497 11.514 114.484 11.584 114.484 11.602C114.484 11.6362 114.496 11.6622 114.517 11.6801C114.538 11.698 114.577 11.7078 114.634 11.7078C114.654 11.7078 114.703 11.7046 114.781 11.6964L114.712 12.0205C114.637 12.0352 114.559 12.0433 114.479 12.0433C114.325 12.0433 114.211 12.014 114.141 11.9537C114.071 11.8935 114.035 11.812 114.035 11.7062C114.035 11.6573 114.054 11.5417 114.095 11.3626L114.232 10.7176H114.014L114.015 10.7193Z" fill="#8C8C8C"/>
<path d="M115.408 9.77637H115.844L115.763 10.1705H115.326L115.408 9.77637ZM115.28 10.3887H115.717L115.38 12.0043H114.943L115.28 10.3887Z" fill="#8C8C8C"/>
<path d="M116.153 10.3888H116.569L116.528 10.6005C116.632 10.5109 116.73 10.4458 116.821 10.4083C116.912 10.3692 117.007 10.3513 117.108 10.3513C117.241 10.3513 117.347 10.3904 117.425 10.4669C117.502 10.5435 117.541 10.6461 117.541 10.7731C117.538 10.8301 117.52 10.936 117.484 11.0939L117.292 12.0059H116.855L117.051 11.0907C117.08 10.9539 117.095 10.8725 117.098 10.8464C117.098 10.791 117.082 10.7454 117.047 10.7145C117.013 10.6819 116.968 10.6656 116.907 10.6656C116.842 10.6656 116.771 10.6933 116.691 10.7454C116.611 10.7992 116.549 10.8708 116.504 10.9588C116.471 11.0223 116.433 11.1493 116.393 11.3431L116.254 12.0059H115.818L116.155 10.3904L116.153 10.3888Z" fill="#8C8C8C"/>
<path d="M118.254 11.0402C118.297 10.9132 118.35 10.8171 118.416 10.7568C118.481 10.6949 118.552 10.664 118.631 10.664C118.714 10.664 118.787 10.6982 118.85 10.7682C118.914 10.8383 118.946 10.9295 118.946 11.0435C118.946 11.1428 118.927 11.2438 118.888 11.3496C118.849 11.4555 118.793 11.5369 118.722 11.5939C118.648 11.6509 118.574 11.6802 118.497 11.6802C118.414 11.6802 118.346 11.6477 118.29 11.5841C118.235 11.5206 118.207 11.4278 118.207 11.3057C118.207 11.2275 118.223 11.1395 118.256 11.0402H118.254ZM117.684 12.1541C117.684 12.3365 117.743 12.4652 117.859 12.5434C117.976 12.6215 118.147 12.6606 118.376 12.6606C118.477 12.6606 118.57 12.6525 118.657 12.6362C118.743 12.6199 118.818 12.5939 118.88 12.5564C118.943 12.5189 118.995 12.4733 119.036 12.418C119.077 12.3626 119.114 12.2893 119.147 12.1965C119.179 12.1037 119.218 11.9489 119.266 11.7323L119.52 10.3888H119.109L119.054 10.6738C119.005 10.5712 118.935 10.4914 118.847 10.436C118.758 10.379 118.66 10.3513 118.554 10.3513C118.424 10.3513 118.297 10.392 118.173 10.4735C118.047 10.5549 117.951 10.6738 117.883 10.8317C117.815 10.9897 117.78 11.164 117.78 11.3529C117.78 11.5679 117.831 11.7307 117.932 11.8431C118.033 11.9538 118.163 12.0108 118.321 12.0108C118.49 12.0108 118.655 11.9473 118.813 11.8203L118.797 11.8952C118.771 12.0287 118.748 12.1151 118.73 12.1558C118.702 12.2193 118.666 12.2649 118.622 12.2942C118.564 12.3317 118.486 12.3496 118.388 12.3496C118.329 12.3496 118.282 12.3414 118.249 12.3251C118.215 12.3089 118.191 12.2877 118.176 12.2649C118.161 12.2405 118.153 12.2063 118.153 12.159L117.692 12.0923C117.689 12.1151 117.688 12.1362 117.688 12.1558L117.684 12.1541Z" fill="#8C8C8C"/>
<path d="M121.489 10.2487C121.489 10.1803 121.51 10.1265 121.551 10.0842C121.591 10.0418 121.644 10.0207 121.705 10.0207C121.754 10.0207 121.793 10.0337 121.823 10.0614C121.852 10.0874 121.865 10.1233 121.865 10.164C121.865 10.2096 121.847 10.2552 121.813 10.2992C121.764 10.361 121.678 10.4229 121.556 10.4832C121.512 10.392 121.489 10.3138 121.489 10.2487ZM122.057 11.2812C122.026 11.247 121.984 11.1932 121.932 11.1151C121.845 10.9897 121.774 10.8773 121.715 10.7812C121.899 10.6884 122.031 10.5858 122.111 10.4734C122.191 10.361 122.231 10.2568 122.231 10.1607C122.231 10.0467 122.184 9.94902 122.091 9.86433C121.999 9.77965 121.872 9.7373 121.71 9.7373C121.525 9.7373 121.373 9.79105 121.259 9.8969C121.145 10.0028 121.088 10.1347 121.088 10.291C121.088 10.3969 121.121 10.5223 121.186 10.6656C121.051 10.7372 120.955 10.7991 120.894 10.848C120.811 10.9164 120.745 10.9994 120.692 11.0972C120.64 11.1949 120.614 11.2991 120.614 11.4115C120.614 11.589 120.681 11.7388 120.813 11.861C120.945 11.9831 121.126 12.045 121.357 12.045C121.486 12.045 121.604 12.0254 121.715 11.9864C121.826 11.9473 121.917 11.9 121.99 11.8414C122.026 11.8805 122.07 11.9212 122.124 11.9652C122.176 12.0092 122.22 12.0401 122.254 12.058L122.529 11.773C122.44 11.6965 122.365 11.6281 122.308 11.5662C122.349 11.5287 122.393 11.4766 122.44 11.4098C122.487 11.3431 122.525 11.2812 122.554 11.2258L122.24 11.0369C122.168 11.1509 122.108 11.2323 122.056 11.2844L122.057 11.2812ZM121.749 11.5613C121.622 11.646 121.497 11.6883 121.376 11.6883C121.277 11.6883 121.197 11.659 121.139 11.5988C121.078 11.5385 121.049 11.462 121.049 11.3691C121.049 11.2046 121.148 11.0727 121.345 10.9718C121.459 11.1786 121.595 11.3756 121.749 11.5613Z" fill="#8C8C8C"/>
<path d="M124.262 11.1427L124.754 10.2454L124.887 11.1427H124.262ZM125.014 12.0059H125.449L125.089 9.77637H124.573L123.314 12.0059H123.786L124.057 11.5157H124.941L125.013 12.0059H125.014Z" fill="#8C8C8C"/>
<path d="M126.19 9.77637H126.627L126.545 10.1705H126.109L126.19 9.77637ZM126.061 10.3887H126.498L126.161 12.0043H125.724L126.061 10.3887Z" fill="#8C8C8C"/>
<path d="M126.905 10.3888H127.316L127.25 10.7015C127.402 10.4669 127.565 10.3513 127.742 10.3513C127.804 10.3513 127.871 10.3676 127.943 10.3985L127.773 10.7568C127.734 10.7422 127.692 10.7357 127.648 10.7357C127.573 10.7357 127.496 10.7633 127.42 10.8203C127.343 10.8773 127.283 10.9523 127.239 11.0467C127.195 11.1412 127.153 11.291 127.11 11.4978L127.005 12.0043H126.568L126.905 10.3888Z" fill="#8C8C8C"/>
<path d="M130.288 11.2014L130.749 11.2714C130.659 11.5222 130.524 11.7128 130.343 11.8447C130.162 11.9766 129.952 12.0434 129.71 12.0434C129.438 12.0434 129.224 11.9619 129.071 11.7974C128.918 11.633 128.842 11.3952 128.842 11.0825C128.842 10.8284 128.894 10.5972 128.996 10.3871C129.099 10.177 129.242 10.0158 129.425 9.90505C129.607 9.7943 129.806 9.7373 130.021 9.7373C130.262 9.7373 130.457 9.80245 130.605 9.9311C130.755 10.0598 130.841 10.2356 130.869 10.4571L130.429 10.4995C130.405 10.3708 130.358 10.2764 130.289 10.2177C130.219 10.1591 130.128 10.1298 130.012 10.1298C129.885 10.1298 129.768 10.1689 129.657 10.2454C129.548 10.322 129.46 10.4425 129.394 10.607C129.328 10.7714 129.294 10.9343 129.294 11.0972C129.294 11.2763 129.337 11.4131 129.423 11.5108C129.509 11.6085 129.615 11.6574 129.742 11.6574C129.861 11.6574 129.969 11.6183 130.068 11.5418C130.167 11.4652 130.24 11.3512 130.289 11.1998L130.288 11.2014Z" fill="#8C8C8C"/>
<path d="M132.053 11.5515C131.972 11.6541 131.871 11.7046 131.75 11.7046C131.654 11.7046 131.574 11.6704 131.511 11.6036C131.447 11.5352 131.416 11.444 131.416 11.3284C131.416 11.2356 131.438 11.133 131.478 11.0222C131.519 10.9115 131.576 10.8268 131.649 10.7682C131.723 10.7095 131.807 10.6802 131.902 10.6802C131.996 10.6802 132.076 10.7112 132.136 10.773C132.196 10.8349 132.227 10.918 132.227 11.0222C132.227 11.2307 132.169 11.4066 132.053 11.5515ZM131.069 11.6932C131.126 11.8056 131.214 11.8902 131.332 11.9521C131.449 12.0124 131.584 12.0433 131.736 12.0433C132.016 12.0433 132.24 11.9472 132.407 11.7567C132.574 11.5662 132.657 11.3398 132.657 11.0776C132.657 10.8561 132.591 10.6786 132.457 10.5467C132.323 10.4148 132.138 10.3496 131.9 10.3496C131.625 10.3496 131.403 10.4392 131.236 10.6167C131.066 10.7942 130.983 11.0336 130.983 11.3333C130.983 11.4619 131.012 11.5808 131.069 11.6932Z" fill="#8C8C8C"/>
<path d="M133.164 10.3888H133.579L133.539 10.6005C133.643 10.5109 133.74 10.4458 133.832 10.4083C133.923 10.3692 134.017 10.3513 134.118 10.3513C134.252 10.3513 134.358 10.3904 134.436 10.4669C134.512 10.5435 134.551 10.6461 134.551 10.7731C134.548 10.8301 134.53 10.936 134.496 11.0939L134.304 12.0059H133.867L134.063 11.0907C134.092 10.9539 134.107 10.8725 134.11 10.8464C134.11 10.791 134.094 10.7454 134.06 10.7145C134.025 10.6819 133.98 10.6656 133.92 10.6656C133.854 10.6656 133.783 10.6933 133.703 10.7454C133.623 10.7992 133.561 10.8708 133.516 10.9588C133.483 11.0223 133.446 11.1493 133.405 11.3431L133.267 12.0059H132.83L133.167 10.3904L133.164 10.3888Z" fill="#8C8C8C"/>
<path d="M135.327 10.8854C135.41 10.7437 135.515 10.6721 135.646 10.6721C135.729 10.6721 135.802 10.7079 135.866 10.7796C135.929 10.8512 135.962 10.9457 135.962 11.0629C135.962 11.1655 135.941 11.2714 135.9 11.3838C135.857 11.4945 135.802 11.5776 135.734 11.6329C135.664 11.6867 135.59 11.7144 135.509 11.7144C135.423 11.7144 135.349 11.6818 135.291 11.6167C135.232 11.5515 135.203 11.4619 135.203 11.3463C135.203 11.1818 135.244 11.0271 135.328 10.8854H135.327ZM136.701 9.77637H136.265L136.082 10.6102C135.973 10.4376 135.807 10.3529 135.589 10.3529C135.346 10.3529 135.151 10.4571 135.002 10.6672C134.854 10.8757 134.781 11.1102 134.781 11.3691C134.781 11.5922 134.833 11.7616 134.937 11.8756C135.042 11.9896 135.177 12.0466 135.344 12.0466C135.441 12.0466 135.527 12.0303 135.603 11.9961C135.68 11.9635 135.758 11.9082 135.836 11.8316L135.799 12.0091H136.214L136.701 9.77962V9.77637Z" fill="#8C8C8C"/>
<path d="M137.087 9.77637H137.523L137.442 10.1705H137.005L137.087 9.77637ZM136.958 10.3887H137.395L137.058 12.0043H136.621L136.958 10.3887Z" fill="#8C8C8C"/>
<path d="M137.597 10.7193L137.665 10.3887H137.882L137.934 10.1346L138.427 9.83496L138.315 10.3887H138.584L138.515 10.7193H138.247L138.105 11.3919C138.079 11.514 138.066 11.584 138.066 11.602C138.066 11.6362 138.077 11.6622 138.098 11.6801C138.12 11.698 138.159 11.7078 138.216 11.7078C138.235 11.7078 138.284 11.7046 138.362 11.6964L138.294 12.0205C138.219 12.0352 138.141 12.0433 138.061 12.0433C137.906 12.0433 137.792 12.014 137.722 11.9537C137.652 11.8951 137.616 11.812 137.616 11.7062C137.616 11.6573 137.636 11.5417 137.677 11.3626L137.813 10.7176H137.595L137.597 10.7193Z" fill="#8C8C8C"/>
<path d="M138.989 9.77637H139.426L139.344 10.1705H138.908L138.989 9.77637ZM138.861 10.3887H139.297L138.96 12.0043H138.523L138.861 10.3887Z" fill="#8C8C8C"/>
<path d="M140.527 11.5515C140.445 11.6541 140.344 11.7046 140.224 11.7046C140.128 11.7046 140.048 11.6704 139.984 11.6036C139.921 11.5352 139.89 11.444 139.89 11.3284C139.89 11.2356 139.911 11.133 139.952 11.0222C139.992 10.9115 140.049 10.8268 140.123 10.7682C140.196 10.7095 140.281 10.6802 140.375 10.6802C140.47 10.6802 140.549 10.7112 140.61 10.773C140.67 10.8349 140.701 10.918 140.701 11.0222C140.701 11.2307 140.642 11.4066 140.527 11.5515ZM139.543 11.6932C139.6 11.8056 139.688 11.8902 139.805 11.9521C139.922 12.0124 140.057 12.0433 140.209 12.0433C140.489 12.0433 140.714 11.9472 140.88 11.7567C141.048 11.5662 141.131 11.3398 141.131 11.0776C141.131 10.8561 141.064 10.6786 140.93 10.5467C140.797 10.4148 140.611 10.3496 140.373 10.3496C140.098 10.3496 139.877 10.4392 139.709 10.6167C139.541 10.7942 139.457 11.0336 139.457 11.3333C139.457 11.4619 139.486 11.5808 139.543 11.6932Z" fill="#8C8C8C"/>
<path d="M141.637 10.3888H142.053L142.012 10.6005C142.116 10.5109 142.214 10.4458 142.305 10.4083C142.396 10.3692 142.491 10.3513 142.592 10.3513C142.725 10.3513 142.831 10.3904 142.909 10.4669C142.986 10.5435 143.025 10.6461 143.025 10.7731C143.022 10.8301 143.004 10.936 142.968 11.0939L142.776 12.0059H142.339L142.535 11.0907C142.564 10.9539 142.579 10.8725 142.582 10.8464C142.582 10.791 142.566 10.7454 142.531 10.7145C142.497 10.6819 142.452 10.6656 142.391 10.6656C142.326 10.6656 142.254 10.6933 142.175 10.7454C142.095 10.7992 142.033 10.8708 141.987 10.9588C141.955 11.0223 141.917 11.1493 141.877 11.3431L141.738 12.0059H141.302L141.639 10.3904L141.637 10.3888Z" fill="#8C8C8C"/>
<path d="M143.658 9.77637H144.095L144.013 10.1705H143.577L143.658 9.77637ZM143.531 10.3887H143.968L143.631 12.0043H143.194L143.531 10.3887Z" fill="#8C8C8C"/>
<path d="M144.404 10.3888H144.819L144.779 10.6005C144.883 10.5109 144.981 10.4458 145.07 10.4083C145.161 10.3692 145.256 10.3513 145.357 10.3513C145.49 10.3513 145.596 10.3904 145.674 10.4669C145.751 10.5435 145.79 10.6461 145.79 10.7731C145.787 10.8301 145.769 10.936 145.733 11.0939L145.541 12.0059H145.104L145.3 11.0907C145.329 10.9539 145.344 10.8725 145.347 10.8464C145.347 10.791 145.331 10.7454 145.296 10.7145C145.262 10.6819 145.217 10.6656 145.156 10.6656C145.091 10.6656 145.02 10.6933 144.94 10.7454C144.86 10.7992 144.798 10.8708 144.753 10.9588C144.72 11.0223 144.682 11.1493 144.642 11.3431L144.503 12.0059H144.067L144.404 10.3904V10.3888Z" fill="#8C8C8C"/>
<path d="M146.505 11.0402C146.547 10.9132 146.601 10.8171 146.666 10.7568C146.731 10.6949 146.803 10.664 146.881 10.664C146.964 10.664 147.038 10.6982 147.101 10.7682C147.165 10.8383 147.197 10.9295 147.197 11.0435C147.197 11.1428 147.178 11.2438 147.139 11.3496C147.099 11.4555 147.044 11.5369 146.972 11.5939C146.901 11.6509 146.824 11.6802 146.748 11.6802C146.665 11.6802 146.596 11.6477 146.541 11.5841C146.486 11.5206 146.458 11.4278 146.458 11.3057C146.458 11.2275 146.474 11.1395 146.507 11.0402H146.505ZM145.935 12.1541C145.935 12.3365 145.994 12.4652 146.109 12.5434C146.227 12.6215 146.398 12.6606 146.626 12.6606C146.727 12.6606 146.819 12.6525 146.906 12.6362C146.992 12.6199 147.067 12.5939 147.129 12.5564C147.192 12.5189 147.244 12.4733 147.285 12.418C147.326 12.3626 147.363 12.2893 147.396 12.1965C147.428 12.1037 147.468 11.9489 147.515 11.7323L147.769 10.3888H147.358L147.303 10.6738C147.254 10.5712 147.184 10.4914 147.096 10.436C147.007 10.379 146.909 10.3513 146.803 10.3513C146.673 10.3513 146.546 10.392 146.422 10.4735C146.297 10.5549 146.201 10.6738 146.132 10.8317C146.064 10.9897 146.03 11.164 146.03 11.3529C146.03 11.5679 146.08 11.7307 146.181 11.8431C146.282 11.9538 146.412 12.0108 146.57 12.0108C146.74 12.0108 146.904 11.9473 147.062 11.8203L147.046 11.8952C147.02 12.0287 146.997 12.1151 146.979 12.1558C146.951 12.2193 146.915 12.2649 146.871 12.2942C146.813 12.3317 146.733 12.3496 146.637 12.3496C146.578 12.3496 146.531 12.3414 146.499 12.3251C146.464 12.3089 146.44 12.2877 146.425 12.2649C146.411 12.2405 146.402 12.2063 146.402 12.159L145.942 12.0923C145.938 12.1151 145.937 12.1362 145.937 12.1558L145.935 12.1541Z" fill="#8C8C8C"/>
<path d="M170.891 26.4261L170.6 25.4772H169.486L169.211 26.4261H168.736L169.794 23.0842H170.36L171.402 26.4261H170.891ZM170.069 23.5594H170.032C169.976 23.7415 169.648 24.9465 169.594 25.093H170.507C170.451 24.9465 170.106 23.76 170.069 23.5594Z" fill="#8C8C8C"/>
<path d="M172.297 23.2678C172.297 23.0858 172.15 22.9392 171.987 22.9392C171.823 22.9392 171.677 23.0858 171.677 23.2678C171.677 23.4499 171.805 23.578 171.968 23.578C172.169 23.578 172.297 23.4314 172.297 23.2678ZM172.206 26.4261V23.9436L171.768 24.0161V26.4261H172.206Z" fill="#8C8C8C"/>
<path d="M174.012 24.4002C173.975 24.3817 173.94 24.3817 173.884 24.3817C173.628 24.3817 173.391 24.6007 173.391 24.8754V26.446H172.952V24.6563C172.952 24.3647 172.915 24.1996 172.861 24.053L173.281 23.9435C173.318 24.0345 173.353 24.1996 173.353 24.3091V24.3462C173.536 24.0715 173.738 23.9265 173.992 23.9265C174.048 23.9265 174.102 23.945 174.139 23.945L174.011 24.4017L174.012 24.4002Z" fill="#8C8C8C"/>
<path d="M176.825 26.4817C176.405 26.4817 176.058 26.2996 175.821 25.988C175.583 25.6763 175.473 25.2752 175.473 24.8015C175.473 24.4173 175.546 24.0887 175.692 23.8156C175.93 23.3404 176.35 23.0488 176.86 23.0488C177.171 23.0488 177.445 23.1399 177.646 23.3049L177.427 23.6151C177.245 23.487 177.061 23.4145 176.86 23.4145C176.55 23.4145 176.294 23.5796 176.148 23.8897C176.038 24.1088 176.001 24.3834 176.001 24.7845C176.001 25.1502 176.038 25.3693 176.111 25.5699C176.257 25.9355 176.567 26.1176 176.896 26.1176C177.152 26.1176 177.316 26.0451 177.499 25.917L177.718 26.2271C177.444 26.3922 177.152 26.4832 176.823 26.4832L176.825 26.4817Z" fill="#8C8C8C"/>
<path d="M179.051 26.5C178.431 26.5 178.029 26.0063 178.029 25.2226C178.029 24.4388 178.413 23.9451 179.033 23.9451C179.727 23.9451 180.074 24.5113 180.074 25.2411C180.074 26.0079 179.673 26.5016 179.051 26.5016V26.5ZM179.033 24.2907C178.649 24.2907 178.504 24.5653 178.504 25.167C178.504 25.9153 178.686 26.1529 179.051 26.1529C179.38 26.1529 179.581 25.8968 179.581 25.258C179.581 24.5098 179.38 24.2907 179.033 24.2907Z" fill="#8C8C8C"/>
<path d="M182.028 26.4259V24.7827C182.028 24.5636 182.009 24.4911 181.955 24.4171C181.9 24.3615 181.827 24.326 181.717 24.326C181.552 24.326 181.298 24.4541 181.133 24.6361V26.4259H180.713V24.6176C180.713 24.326 180.695 24.2165 180.622 24.0329L181.023 23.9233C181.079 24.0329 181.096 24.1424 181.096 24.289C181.224 24.1795 181.296 24.1069 181.406 24.0514C181.534 23.9789 181.697 23.9233 181.844 23.9233C182.1 23.9233 182.319 24.0514 182.392 24.2705C182.429 24.3615 182.447 24.4711 182.447 24.5806V26.4058H182.028V26.4243V26.4259Z" fill="#8C8C8C"/>
<path d="M184.638 26.4261C184.619 26.3536 184.601 26.3166 184.601 26.207C184.436 26.3891 184.235 26.4817 183.998 26.4817C183.394 26.4817 183.049 26.025 183.049 25.2582C183.049 24.729 183.214 24.3263 183.543 24.1257C183.689 24.0347 183.834 23.9791 183.999 23.9791C184.218 23.9791 184.419 24.0702 184.565 24.2538C184.565 24.1813 184.547 23.9977 184.547 23.8341V22.8853L184.985 22.9578V25.6238C184.985 26.008 185.004 26.2811 185.058 26.4462H184.638V26.4277V26.4261ZM184.547 24.5454C184.419 24.3988 184.272 24.3263 184.053 24.3263C183.871 24.3263 183.725 24.4173 183.652 24.5639C183.561 24.729 183.524 24.911 183.524 25.2397C183.524 25.7149 183.58 25.8429 183.706 25.9694C183.779 26.0605 183.888 26.0975 184.053 26.0975C184.309 26.0975 184.473 25.9694 184.547 25.8229V24.5454Z" fill="#8C8C8C"/>
<path d="M185.99 23.578C185.825 23.578 185.698 23.4314 185.698 23.2678C185.698 23.0858 185.826 22.9392 186.008 22.9392C186.173 22.9392 186.318 23.0858 186.318 23.2678C186.3 23.4329 186.153 23.578 185.99 23.578ZM185.771 26.4261V24.0161L186.209 23.9436V26.4261H185.771Z" fill="#8C8C8C"/>
<path d="M187.87 24.3262H187.414V25.7873C187.414 26.0789 187.486 26.1715 187.724 26.1715C187.796 26.1715 187.87 26.153 187.943 26.1159L187.998 26.3906C187.87 26.4631 187.724 26.5001 187.579 26.5001C187.434 26.5001 187.25 26.4446 187.178 26.3721C187.087 26.281 186.996 26.2255 186.996 25.8783V24.3077H186.721V23.9976H186.996C186.996 23.8155 186.996 23.5594 187.033 23.3774L187.471 23.2678C187.452 23.4499 187.434 23.743 187.434 23.9976H188L187.872 24.3262H187.87Z" fill="#8C8C8C"/>
<path d="M188.71 23.578C188.544 23.578 188.418 23.4314 188.418 23.2678C188.418 23.0858 188.546 22.9392 188.728 22.9392C188.893 22.9392 189.038 23.0858 189.038 23.2678C189.02 23.4329 188.873 23.578 188.71 23.578ZM188.49 26.4261V24.0161L188.929 23.9436V26.4261H188.49Z" fill="#8C8C8C"/>
<path d="M190.537 26.5C189.916 26.5 189.514 26.0063 189.514 25.2226C189.514 24.4388 189.898 23.9451 190.518 23.9451C191.212 23.9451 191.559 24.5113 191.559 25.2411C191.559 26.0079 191.158 26.5016 190.537 26.5016V26.5ZM190.537 24.2907C190.152 24.2907 190.007 24.5653 190.007 25.167C190.007 25.9153 190.189 26.1529 190.555 26.1529C190.884 26.1529 191.084 25.8968 191.084 25.258C191.084 24.5098 190.865 24.2907 190.537 24.2907Z" fill="#8C8C8C"/>
<path d="M193.53 26.4259V24.7827C193.53 24.5636 193.511 24.4911 193.457 24.4171C193.401 24.3615 193.329 24.326 193.219 24.326C193.054 24.326 192.8 24.4541 192.635 24.6361V26.4259H192.196V24.6176C192.196 24.326 192.178 24.2165 192.105 24.0329L192.507 23.9233C192.562 24.0329 192.579 24.1424 192.579 24.289C192.707 24.1795 192.78 24.1069 192.889 24.0514C193.017 23.9789 193.181 23.9233 193.327 23.9233C193.584 23.9233 193.803 24.0514 193.875 24.2705C193.912 24.3615 193.931 24.4711 193.931 24.5806V26.4058H193.53V26.4243V26.4259Z" fill="#8C8C8C"/>
<path d="M194.918 23.578C194.753 23.578 194.626 23.4314 194.626 23.2678C194.626 23.0858 194.755 22.9392 194.937 22.9392C195.102 22.9392 195.247 23.0858 195.247 23.2678C195.228 23.4329 195.082 23.578 194.918 23.578ZM194.699 26.4261V24.0161L195.137 23.9436V26.4261H194.699Z" fill="#8C8C8C"/>
<path d="M197.219 26.4259V24.7827C197.219 24.5636 197.2 24.4911 197.146 24.4171C197.09 24.3615 197.018 24.326 196.908 24.326C196.743 24.326 196.489 24.4541 196.324 24.6361V26.4259H195.904V24.6176C195.904 24.326 195.886 24.2165 195.813 24.0329L196.214 23.9233C196.27 24.0329 196.287 24.1424 196.287 24.289C196.415 24.1795 196.487 24.1069 196.597 24.0514C196.725 23.9789 196.888 23.9233 197.035 23.9233C197.291 23.9233 197.51 24.0514 197.583 24.2705C197.62 24.3615 197.638 24.4711 197.638 24.5806V26.4058H197.219V26.4243V26.4259Z" fill="#8C8C8C"/>
<path d="M200.121 24.3631C200.048 24.3631 200.03 24.3631 199.92 24.3261C200.048 24.4912 200.085 24.6177 200.085 24.7642C200.085 25.1114 199.848 25.5125 199.246 25.5125C199.099 25.5681 198.88 25.6776 198.88 25.7872C198.88 25.8597 198.936 25.9152 199.045 25.9152H199.411C200.014 25.9152 200.269 26.2068 200.269 26.591C200.269 27.1202 199.849 27.3763 199.283 27.3763C198.626 27.3763 198.241 27.1387 198.241 26.7376C198.241 26.628 198.26 26.5555 198.278 26.4814L198.698 26.4629C198.68 26.5 198.661 26.5725 198.661 26.645C198.661 26.9011 198.862 27.0292 199.227 27.0292C199.612 27.0292 199.812 26.8641 199.812 26.6095C199.812 26.3719 199.63 26.2438 199.173 26.2438C199.008 26.2438 198.826 26.2253 198.735 26.2253C198.535 26.2068 198.407 26.0788 198.407 25.8967C198.407 25.6776 198.607 25.5681 198.863 25.477C198.498 25.3675 198.316 25.1114 198.316 24.7828C198.316 24.289 198.681 23.9604 199.21 23.9604C199.338 23.9604 199.429 23.9789 199.576 24.016C199.704 24.053 199.832 24.0885 199.923 24.0885C200.07 24.0885 200.179 24.0329 200.307 23.9419L200.526 24.2165C200.38 24.3076 200.27 24.3631 200.125 24.3631H200.121ZM199.19 24.2906C198.916 24.2906 198.771 24.4372 198.771 24.7473C198.771 25.0389 198.917 25.204 199.209 25.204C199.483 25.204 199.628 25.0389 199.628 24.7473C199.61 24.4372 199.482 24.2906 199.19 24.2906Z" fill="#8C8C8C"/>
<path d="M204.12 26.4262L203.845 26.1346C203.645 26.3537 203.316 26.5002 202.932 26.5002C202.202 26.5002 201.836 26.1161 201.836 25.6054C201.836 25.1672 202.093 24.9666 202.475 24.7661C202.165 24.5099 202.037 24.3094 202.037 24.0178C202.037 23.5796 202.384 23.251 202.895 23.251C203.37 23.251 203.771 23.5256 203.771 23.9993C203.771 24.4004 203.443 24.638 203.114 24.7846L203.808 25.4974C203.881 25.3153 203.899 25.0407 203.899 24.8401H204.265C204.265 25.3508 204.209 25.5344 204.1 25.789L204.72 26.4277H204.117L204.12 26.4262ZM202.714 24.9836C202.44 25.1302 202.295 25.3307 202.295 25.6038C202.295 25.951 202.532 26.1701 202.933 26.1701C203.225 26.1701 203.463 26.0605 203.591 25.8954L202.714 24.9821V24.9836ZM202.896 23.5595C202.677 23.5595 202.495 23.6876 202.495 23.9792C202.495 24.1798 202.642 24.3634 202.879 24.5639C203.171 24.4174 203.318 24.2353 203.318 23.9977C203.299 23.7231 203.136 23.5595 202.898 23.5595H202.896Z" fill="#8C8C8C"/>
<path d="M207.972 26.4261V24.8555H206.73V26.4446H206.292V23.1028H206.73V24.4728H207.972V23.1028H208.429V26.4446H207.972V26.4261Z" fill="#8C8C8C"/>
<path d="M209.543 25.3122V25.3677C209.543 25.5683 209.58 25.7334 209.634 25.8614C209.762 26.062 209.944 26.153 210.182 26.153C210.401 26.153 210.583 26.0805 210.766 25.9154L210.932 26.19C210.694 26.3906 210.421 26.5002 210.128 26.5002C209.47 26.5002 209.069 26.0064 209.069 25.2227C209.069 24.803 209.142 24.5284 209.344 24.2908C209.526 24.0717 209.764 23.9622 210.057 23.9622C210.313 23.9622 210.532 24.0532 210.696 24.2183C210.896 24.4374 210.97 24.712 210.987 25.2597V25.3322H209.545V25.3137L209.543 25.3122ZM210.364 24.4358C210.291 24.3448 210.182 24.2707 210.017 24.2707C209.688 24.2707 209.523 24.5454 209.523 24.9835H210.49C210.509 24.7644 210.453 24.5639 210.362 24.4358H210.364Z" fill="#8C8C8C"/>
<path d="M213.175 26.5354C213.028 26.4799 212.919 26.3534 212.865 26.1883C212.811 26.2608 212.609 26.5169 212.207 26.5169C211.732 26.5169 211.441 26.2608 211.441 25.8041C211.441 25.2379 211.879 24.9463 212.646 24.9463H212.811V24.7812C212.811 24.4896 212.774 24.306 212.445 24.306C212.189 24.306 211.916 24.4341 211.715 24.5806L211.515 24.2705C211.752 24.1425 212.044 23.9419 212.501 23.9419C212.848 23.9419 213.085 24.07 213.176 24.3261C213.213 24.4356 213.23 24.5081 213.23 24.7457C213.23 24.9278 213.212 25.2934 213.212 25.6406C213.212 25.9692 213.23 26.1158 213.412 26.2253L213.175 26.5354ZM212.646 25.2394C212.317 25.2394 212.116 25.295 212.025 25.4215C211.934 25.531 211.897 25.6221 211.897 25.7686C211.897 26.0433 212.025 26.1883 212.263 26.1883C212.464 26.1883 212.647 26.0602 212.757 25.8782L212.775 25.258C212.72 25.2394 212.684 25.2394 212.647 25.2394H212.646Z" fill="#8C8C8C"/>
<path d="M214.983 24.0159H214.417C214.417 23.7598 214.435 23.4682 214.454 23.2861L214.016 23.3957C213.997 23.5777 213.979 23.8338 213.979 24.0159H213.704V24.326H213.979V25.8966C213.979 26.2438 214.051 26.2978 214.161 26.3904C214.233 26.4629 214.398 26.5184 214.562 26.5184C214.709 26.5184 214.854 26.4814 214.982 26.4089L214.928 26.1342C214.855 26.1713 214.781 26.1898 214.708 26.1898C214.471 26.1898 214.398 26.0988 214.398 25.8056V24.3445H214.855L214.983 24.0159Z" fill="#8C8C8C"/>
<path d="M216.023 23.2678C216.023 23.0858 215.876 22.9392 215.713 22.9392C215.549 22.9392 215.403 23.0858 215.403 23.2678C215.403 23.4499 215.531 23.578 215.694 23.578C215.876 23.578 216.023 23.4314 216.023 23.2678ZM215.932 26.4261V23.9436L215.494 24.0161V26.4261H215.932Z" fill="#8C8C8C"/>
<path d="M218.013 26.4259V24.7827C218.013 24.5636 217.994 24.4911 217.94 24.4171C217.886 24.3615 217.812 24.326 217.703 24.326C217.538 24.326 217.283 24.4541 217.118 24.6361V26.4259H216.698V24.6176C216.698 24.326 216.68 24.2165 216.607 24.0329L217.009 23.9233C217.063 24.0329 217.081 24.1424 217.081 24.289C217.209 24.1795 217.282 24.1069 217.391 24.0514C217.538 23.9789 217.683 23.9233 217.829 23.9233C218.085 23.9233 218.305 24.0514 218.377 24.2705C218.414 24.3615 218.431 24.4711 218.431 24.5806V26.4058H218.011V26.4243L218.013 26.4259Z" fill="#8C8C8C"/>
<path d="M220.917 24.3631C220.844 24.3631 220.826 24.3631 220.716 24.3261C220.844 24.4912 220.881 24.6177 220.881 24.7642C220.881 25.1114 220.644 25.5125 220.042 25.5125C219.895 25.5681 219.676 25.6776 219.676 25.7872C219.676 25.8597 219.73 25.9152 219.841 25.9152H220.207C220.81 25.9152 221.065 26.2068 221.065 26.591C221.065 27.1202 220.645 27.3763 220.079 27.3763C219.422 27.3763 219.038 27.1387 219.038 26.7376C219.038 26.628 219.056 26.5555 219.075 26.4814L219.494 26.4629C219.476 26.5 219.457 26.5725 219.457 26.645C219.457 26.9011 219.658 27.0292 220.023 27.0292C220.408 27.0292 220.608 26.8641 220.608 26.6095C220.608 26.3719 220.426 26.2438 219.969 26.2438C219.804 26.2438 219.622 26.2253 219.531 26.2253C219.331 26.2068 219.203 26.0788 219.203 25.8967C219.203 25.6776 219.403 25.5681 219.659 25.477C219.294 25.3675 219.112 25.1114 219.112 24.7828C219.112 24.289 219.477 23.9604 220.007 23.9604C220.135 23.9604 220.226 23.9789 220.372 24.016C220.5 24.053 220.628 24.0885 220.719 24.0885C220.866 24.0885 220.975 24.0329 221.103 23.9419L221.323 24.2165C221.176 24.3076 221.066 24.3631 220.921 24.3631H220.917ZM219.985 24.2906C219.71 24.2906 219.565 24.4372 219.565 24.7473C219.565 25.0389 219.712 25.204 220.003 25.204C220.278 25.204 220.423 25.0389 220.423 24.7473C220.405 24.4372 220.277 24.2906 219.985 24.2906Z" fill="#8C8C8C"/>
<path d="M171.603 20.7113C170.89 20.7113 170.233 20.4366 169.722 19.9259C169.228 19.4322 168.937 18.758 168.937 18.0452V10.2137C168.937 9.50086 169.211 8.84361 169.722 8.33292C170.233 7.82224 170.89 7.54761 171.603 7.54761H218.197C218.91 7.54761 219.567 7.82224 220.078 8.33292C220.571 8.82664 220.863 9.50086 220.863 10.2137V18.0467C220.863 19.5078 219.676 20.6943 218.215 20.6943H171.603M218.178 19.8905C219.201 19.8905 220.022 19.0681 220.022 18.0467V10.1951C220.022 9.17224 219.2 8.35144 218.178 8.35144H171.603C170.58 8.35144 169.759 9.17378 169.759 10.1951V18.0282C169.759 19.0511 170.581 19.8719 171.603 19.8719H218.178" fill="#8C8C8C"/>
<path d="M178.814 13.6096V13.9753C178.814 16.2571 177.061 17.6272 175.18 17.6272C173.118 17.6272 171.565 16.0211 171.565 14.0493C171.565 12.0775 173.209 10.5439 175.217 10.5439C176.842 10.5439 178.248 11.6394 178.632 12.9539H176.678C176.404 12.4787 175.912 12.0775 175.182 12.0775C174.324 12.0775 173.32 12.7163 173.32 14.0678C173.32 15.4919 174.343 16.1121 175.182 16.1121C176.021 16.1121 176.624 15.6739 176.807 15.0167H174.779V13.6297H178.814" fill="#8C8C8C"/>
<path d="M182.193 12.2041C184.055 12.2041 184.95 13.6652 184.95 14.9242C184.95 16.1831 184.055 17.6442 182.193 17.6442C180.33 17.6442 179.436 16.1831 179.436 14.9242C179.436 13.6652 180.33 12.2041 182.193 12.2041ZM182.193 16.2202C182.85 16.2202 183.416 15.6724 183.416 14.9242C183.416 14.1759 182.85 13.6282 182.193 13.6282C181.535 13.6282 180.969 14.1759 180.969 14.9242C180.951 15.6724 181.517 16.2202 182.193 16.2202Z" fill="#8C8C8C"/>
<path d="M188.327 12.2041C190.189 12.2041 191.084 13.6652 191.084 14.9242C191.084 16.1831 190.189 17.6442 188.327 17.6442C186.465 17.6442 185.57 16.1831 185.57 14.9242C185.57 13.6822 186.465 12.2041 188.327 12.2041ZM188.327 16.2202C188.984 16.2202 189.55 15.6724 189.55 14.9242C189.55 14.1759 188.984 13.6282 188.327 13.6282C187.67 13.6282 187.103 14.1759 187.103 14.9242C187.103 15.6724 187.67 16.2202 188.327 16.2202Z" fill="#8C8C8C"/>
<path d="M197.273 17.499H195.812V16.9513H195.793C195.665 17.1704 195.299 17.6641 194.259 17.6641C192.707 17.6641 191.703 16.4591 191.703 14.9255C191.703 13.1914 192.945 12.2055 194.241 12.2055C195.136 12.2055 195.574 12.6436 195.737 12.8087V10.6719H197.271V17.5006L197.273 17.499ZM194.516 16.2385C195.483 16.2385 195.83 15.4532 195.83 14.924C195.83 14.3038 195.392 13.6465 194.534 13.6465C193.676 13.6465 193.238 14.3408 193.238 14.924C193.238 15.7093 193.804 16.2385 194.516 16.2385Z" fill="#8C8C8C"/>
<path d="M198.204 12.386H199.628V12.9337H199.647C199.775 12.7147 200.104 12.2209 201.052 12.2209C201.509 12.2209 202.129 12.386 202.532 13.1343C202.842 12.6406 203.371 12.2209 204.157 12.2209C204.522 12.2209 205.089 12.312 205.508 12.7316C205.983 13.2423 206.056 13.5709 206.056 14.7219V17.516H204.522V14.7775C204.522 14.3578 204.522 13.645 203.737 13.645C202.898 13.645 202.898 14.4118 202.898 14.7034V17.4975H201.364V14.7034C201.364 14.4288 201.364 13.6265 200.597 13.6265C199.739 13.6265 199.739 14.4488 199.739 14.7589V17.479H198.206V12.3845" fill="#8C8C8C"/>
<path d="M212.336 17.499H210.802V16.9513H210.784C210.527 17.445 209.889 17.681 209.287 17.681C207.662 17.681 206.712 16.4036 206.712 14.9425C206.712 13.2623 207.917 12.2224 209.287 12.2224C210.126 12.2224 210.601 12.6236 210.784 12.9352H210.802V12.3875H212.336V17.499ZM209.525 16.2385C210.492 16.2385 210.802 15.4346 210.802 14.924C210.802 14.3037 210.382 13.628 209.506 13.628C208.63 13.628 208.246 14.3577 208.246 14.9425C208.246 15.4362 208.611 16.2385 209.523 16.2385" fill="#8C8C8C"/>
<path d="M213.267 12.386H214.691V12.9337H214.71C214.875 12.6776 215.185 12.2209 216.097 12.2209C216.591 12.2209 217.138 12.4215 217.411 12.6591C217.686 12.8967 217.996 13.2979 217.996 14.3023V17.4975H216.481V14.7034C216.481 14.3377 216.481 13.645 215.677 13.645C214.801 13.645 214.801 14.3933 214.801 14.7219V17.516H213.267V12.386Z" fill="#8C8C8C"/>
<path d="M218.087 11.1626C218.141 11.1626 218.397 11.1626 218.397 11.4002C218.397 11.4912 218.36 11.5823 218.232 11.6008C218.342 11.6378 218.36 11.6733 218.379 11.8014C218.379 11.9664 218.397 11.9834 218.416 12.0204H218.306C218.288 12.0019 218.288 11.9649 218.288 11.8554C218.288 11.7273 218.269 11.6548 218.069 11.6548H217.849V12.0204H217.74V11.1626H218.087ZM217.831 11.5653H218.05C218.104 11.5653 218.288 11.5653 218.288 11.4002C218.288 11.2536 218.123 11.2536 218.069 11.2536H217.831V11.5638V11.5653ZM218.798 11.5823C218.798 12.039 218.507 12.3306 218.05 12.3306C217.63 12.3306 217.302 11.9834 217.302 11.5823C217.302 11.1811 217.63 10.834 218.05 10.834C218.47 10.834 218.798 11.1811 218.798 11.5823ZM217.411 11.5823C217.411 11.9479 217.703 12.2395 218.05 12.2395C218.397 12.2395 218.689 11.9479 218.689 11.5823C218.689 11.2166 218.414 10.925 218.05 10.925C217.686 10.925 217.411 11.2351 217.411 11.5823Z" fill="#8C8C8C"/>
</svg>
