<svg width="16" height="13" viewBox="63.19 0 15.05 12.15" fill="none" xmlns="http://www.w3.org/2000/svg" aria-hidden="true">
  <path
    d="M66.3948 5.31259C66.3948 5.31259 65.5401 4.47588 65.4887 4.13427C65.4499 3.87508 65.4654 3.66903 65.6489 3.44925C65.8473 3.21216 66.0147 1.94783 66.0918 1.83257C66.1689 1.7173 66.4809 0.282769 67.078 0.206324C67.6751 0.129282 68.2232 0.547937 68.4114 1.29925C68.5561 1.87796 69.3002 3.72457 69.097 6.8182C69.0139 8.08193 69.1651 7.92426 69.4538 7.94337C69.7425 7.96248 73.1302 6.28488 74.411 6.1499C75.0607 6.08182 76.2573 5.84233 77.4383 5.97133C77.785 6.00896 78.1621 6.11467 78.0163 6.31772C77.6864 6.77759 76.3159 7.3778 75.6931 7.70448C74.9986 8.06879 74.3369 8.70483 73.6239 9.24353C72.9108 9.78222 72.5851 10.2373 72.2056 10.0444C71.266 9.56722 70.9456 9.26324 70.8685 9.28235C70.7914 9.30146 70.8733 9.36297 70.9743 9.65143C71.0646 9.90943 71.6467 10.2779 71.419 10.7617C71.1453 11.3422 70.5816 11.6671 69.6415 11.7865C68.8543 11.8868 67.8807 12.0941 67.5729 11.5984C67.182 10.9689 67.3702 10.7205 67.7283 10.0134C68.1371 9.2071 67.9667 9.13483 67.9315 9.12169C67.4868 8.95089 66.8801 9.41672 66.341 9.53199C65.8019 9.64725 64.6651 9.44061 64.2222 8.59196C63.8122 7.80601 63.3197 5.74439 64.1708 5.31259C65.316 4.73209 66.1988 5.54492 66.3757 5.41532L66.393 5.31259H66.3948Z"
    fill="#ffffff"
  />
</svg>
